<svg width="295" height="174" viewBox="0 0 295 174" fill="none" xmlns="http://www.w3.org/2000/svg">
<g clip-path="url(#clip0_88_2)">
<path d="M0 -18C0.166667 -12.6667 0.221196 -0.778804 10 9C16 15 31.2174 24.86 51 21C71.5 17 78 -0.5 80 -6.5C80.5 -8 82.5 -18 81.5 -22" stroke="#AFB0B5" stroke-width="2"/>
<path d="M166 182.737C167 165.237 178.8 127.437 218 116.237C257.2 105.037 287.333 125.571 297.5 137.237" stroke="#AFB0B5" stroke-width="2"/>
<path d="M309.161 63C293.994 63.5 259.961 73.4 257.161 113C254.361 152.6 288.827 162.667 311.66 164" stroke="#AFB0B5" stroke-width="2"/>
<path d="M231 47V25C231 22.8 232.8 21 235 21H265C267.2 21 269 22.8 269 25V47C269 49.2 267.2 51 265 51H235C232.8 51 231 49.2 231 47Z" fill="#FF9800"/>
<path d="M269 33V31H257C255.9 31 255 30.1 255 29C255 27.9 255.9 27 257 27H258V25H257C254.8 25 253 26.8 253 29C253 31.2 254.8 33 257 33H260V39H257C254.2 39 252 41.2 252 44C252 46.8 254.2 49 257 49H259V47H257C255.3 47 254 45.7 254 44C254 42.3 255.3 41 257 41H269V39H262V33H269ZM243 39H240V33H243C245.2 33 247 31.2 247 29C247 26.8 245.2 25 243 25H240V27H243C244.1 27 245 27.9 245 29C245 30.1 244.1 31 243 31H231V33H238V39H231V41H243C244.7 41 246 42.3 246 44C246 45.7 244.7 47 243 47H241V49H243C245.8 49 248 46.8 248 44C248 41.2 245.8 39 243 39Z" fill="#FFD54F"/>
</g>
<defs>
<clipPath id="clip0_88_2">
<rect width="295" height="174" rx="16" fill="white"/>
</clipPath>
</defs>
</svg>
